<?xml version="1.0" encoding="UTF-8" standalone="no"?>
<!DOCTYPE svg PUBLIC "-//W3C//DTD SVG 1.1//EN"
 "http://www.w3.org/Graphics/SVG/1.1/DTD/svg11.dtd">
<!-- Generated by graphviz version 2.43.0 (0)
 -->
<!-- Title: ProjectArchitecture Pages: 1 -->
<svg width="645pt" height="280pt"
 viewBox="0.00 0.00 644.91 280.00" xmlns="http://www.w3.org/2000/svg" xmlns:xlink="http://www.w3.org/1999/xlink">
<g id="graph0" class="graph" transform="scale(1 1) rotate(0) translate(4 276)">
<title>ProjectArchitecture</title>
<polygon fill="white" stroke="transparent" points="-4,4 -4,-276 640.91,-276 640.91,4 -4,4"/>
<g id="clust1" class="cluster">
<title>cluster_nixpkgs</title>
<polygon fill="lightyellow" stroke="black" points="8,-8 8,-98 78,-98 78,-8 8,-8"/>
<text text-anchor="middle" x="43" y="-84.4" font-family="Times,serif" font-size="12.00">Nixpkgs</text>
</g>
<g id="clust2" class="cluster">
<title>cluster_local</title>
<polygon fill="lightyellow" stroke="black" points="86,-8 86,-98 197,-98 197,-8 86,-8"/>
<text text-anchor="middle" x="141.5" y="-84.4" font-family="Times,serif" font-size="12.00">Local Packages</text>
</g>
<g id="clust3" class="cluster">
<title>cluster_dgenome</title>
<polygon fill="lightgreen" stroke="black" points="238,-131 238,-209 566,-209 566,-131 238,-131"/>
<text text-anchor="middle" x="402" y="-192.2" font-family="Times,serif" font-size="16.00">dgenome</text>
</g>
<!-- start -->
<g id="node1" class="node">
<title>start</title>
<ellipse fill="lightblue" stroke="black" cx="214" cy="-254" rx="66.09" ry="18"/>
<text text-anchor="middle" x="214" y="-250.3" font-family="Times,serif" font-size="14.00">Github repo</text>
</g>
<!-- flake -->
<g id="node2" class="node">
<title>flake</title>
<polygon fill="white" stroke="black" points="172.5,-175 101.5,-175 101.5,-139 178.5,-139 178.5,-169 172.5,-175"/>
<polyline fill="none" stroke="black" points="172.5,-175 172.5,-169 "/>
<polyline fill="none" stroke="black" points="178.5,-169 172.5,-169 "/>
<text text-anchor="middle" x="140" y="-153.3" font-family="Times,serif" font-size="14.00">flake.nix</text>
</g>
<!-- start&#45;&gt;flake -->
<g id="edge1" class="edge">
<title>start&#45;&gt;flake</title>
<path fill="none" stroke="black" d="M200.77,-236.02C189.37,-221.38 172.75,-200.05 159.77,-183.38"/>
<polygon fill="black" stroke="black" points="162.27,-180.9 153.36,-175.16 156.75,-185.2 162.27,-180.9"/>
</g>
<!-- CADD -->
<g id="node5" class="node">
<title>CADD</title>
<polygon fill="white" stroke="black" points="305.5,-175 246.5,-175 246.5,-139 305.5,-139 305.5,-175"/>
<text text-anchor="middle" x="276" y="-153.3" font-family="Times,serif" font-size="14.00">CADD</text>
</g>
<!-- start&#45;&gt;CADD -->
<g id="edge4" class="edge">
<title>start&#45;&gt;CADD</title>
<path fill="none" stroke="black" d="M225.08,-236.02C228.62,-230.6 232.75,-224.27 237.11,-217.59"/>
<polygon fill="black" stroke="black" points="240.18,-219.28 242.72,-209 234.32,-215.46 240.18,-219.28"/>
</g>
<!-- bwa -->
<g id="node3" class="node">
<title>bwa</title>
<polygon fill="white" stroke="black" points="64,-69 16,-69 16,-16 70,-16 70,-63 64,-69"/>
<polyline fill="none" stroke="black" points="64,-69 64,-63 "/>
<polyline fill="none" stroke="black" points="70,-63 64,-63 "/>
<text text-anchor="middle" x="43" y="-53.8" font-family="Times,serif" font-size="14.00">bwa</text>
<text text-anchor="middle" x="43" y="-38.8" font-family="Times,serif" font-size="14.00">gatk</text>
<text text-anchor="middle" x="43" y="-23.8" font-family="Times,serif" font-size="14.00">...</text>
</g>
<!-- flake&#45;&gt;bwa -->
<g id="edge2" class="edge">
<title>flake&#45;&gt;bwa</title>
<path fill="none" stroke="black" d="M121.45,-138.95C111.31,-129.34 98.58,-116.75 84.82,-101.09"/>
<polygon fill="black" stroke="black" points="87.17,-98.46 78,-93.16 81.87,-103.02 87.17,-98.46"/>
</g>
<!-- local_pkgs -->
<g id="node4" class="node">
<title>local_pkgs</title>
<polygon fill="white" stroke="black" points="167,-69 107,-69 107,-16 173,-16 173,-63 167,-69"/>
<polyline fill="none" stroke="black" points="167,-69 167,-63 "/>
<polyline fill="none" stroke="black" points="173,-63 167,-63 "/>
<text text-anchor="middle" x="140" y="-53.8" font-family="Times,serif" font-size="14.00">manta</text>
<text text-anchor="middle" x="140" y="-38.8" font-family="Times,serif" font-size="14.00">pyflow</text>
<text text-anchor="middle" x="140" y="-23.8" font-family="Times,serif" font-size="14.00">strelka</text>
</g>
<!-- flake&#45;&gt;local_pkgs -->
<g id="edge3" class="edge">
<title>flake&#45;&gt;local_pkgs</title>
<path fill="none" stroke="black" d="M140,-138.91C140,-130.38 140,-119.46 140,-108.07"/>
<polygon fill="black" stroke="black" points="143.5,-108 140,-98 136.5,-108 143.5,-108"/>
<text text-anchor="middle" x="156.5" y="-109.8" font-family="Times,serif" font-size="14.00">uses</text>
</g>
<!-- cadd_url -->
<g id="node9" class="node">
<title>cadd_url</title>
<ellipse fill="orange" stroke="black" cx="256" cy="-42.5" rx="50.82" ry="26.74"/>
<text text-anchor="middle" x="256" y="-46.3" font-family="Times,serif" font-size="14.00">CADD</text>
<text text-anchor="middle" x="256" y="-31.3" font-family="Times,serif" font-size="14.00">website</text>
</g>
<!-- CADD&#45;&gt;cadd_url -->
<g id="edge6" class="edge">
<title>CADD&#45;&gt;cadd_url</title>
<path fill="none" stroke="black" stroke-dasharray="5,2" d="M272.96,-138.91C270.17,-123.21 265.94,-99.42 262.41,-79.53"/>
<polygon fill="black" stroke="black" points="265.83,-78.78 260.63,-69.54 258.93,-80 265.83,-78.78"/>
</g>
<!-- genome -->
<g id="node6" class="node">
<title>genome</title>
<polygon fill="white" stroke="black" points="396.5,-175 323.5,-175 323.5,-139 396.5,-139 396.5,-175"/>
<text text-anchor="middle" x="360" y="-153.3" font-family="Times,serif" font-size="14.00">genome</text>
</g>
<!-- genome_url -->
<g id="node10" class="node">
<title>genome_url</title>
<ellipse fill="orange" stroke="black" cx="361" cy="-42.5" rx="36" ry="18"/>
<text text-anchor="middle" x="361" y="-38.8" font-family="Times,serif" font-size="14.00">NCBI</text>
</g>
<!-- genome&#45;&gt;genome_url -->
<g id="edge5" class="edge">
<title>genome&#45;&gt;genome_url</title>
<path fill="none" stroke="black" stroke-dasharray="5,2" d="M360.15,-138.91C360.31,-120.82 360.57,-92.01 360.76,-70.77"/>
<polygon fill="black" stroke="black" points="364.26,-70.78 360.85,-60.75 357.26,-70.72 364.26,-70.78"/>
<text text-anchor="middle" x="405.5" y="-109.8" font-family="Times,serif" font-size="14.00">fetches from</text>
</g>
<!-- clinvar -->
<g id="node7" class="node">
<title>clinvar</title>
<polygon fill="white" stroke="black" points="479.5,-175 414.5,-175 414.5,-139 479.5,-139 479.5,-175"/>
<text text-anchor="middle" x="447" y="-153.3" font-family="Times,serif" font-size="14.00">clinvar</text>
</g>
<!-- clinvar_url -->
<g id="node11" class="node">
<title>clinvar_url</title>
<ellipse fill="orange" stroke="black" cx="466" cy="-42.5" rx="50.82" ry="26.74"/>
<text text-anchor="middle" x="466" y="-46.3" font-family="Times,serif" font-size="14.00">ClinVar</text>
<text text-anchor="middle" x="466" y="-31.3" font-family="Times,serif" font-size="14.00">website</text>
</g>
<!-- clinvar&#45;&gt;clinvar_url -->
<g id="edge8" class="edge">
<title>clinvar&#45;&gt;clinvar_url</title>
<path fill="none" stroke="black" stroke-dasharray="5,2" d="M449.89,-138.91C452.54,-123.21 456.56,-99.42 459.92,-79.53"/>
<polygon fill="black" stroke="black" points="463.39,-79.99 461.6,-69.54 456.48,-78.82 463.39,-79.99"/>
</g>
<!-- dbsnp -->
<g id="node8" class="node">
<title>dbsnp</title>
<polygon fill="white" stroke="black" points="558,-175 498,-175 498,-139 558,-139 558,-175"/>
<text text-anchor="middle" x="528" y="-153.3" font-family="Times,serif" font-size="14.00">dbsnp</text>
</g>
<!-- dbsnp_url -->
<g id="node12" class="node">
<title>dbsnp_url</title>
<ellipse fill="orange" stroke="black" cx="586" cy="-42.5" rx="50.82" ry="26.74"/>
<text text-anchor="middle" x="586" y="-46.3" font-family="Times,serif" font-size="14.00">dbSNP</text>
<text text-anchor="middle" x="586" y="-31.3" font-family="Times,serif" font-size="14.00">website</text>
</g>
<!-- dbsnp&#45;&gt;dbsnp_url -->
<g id="edge7" class="edge">
<title>dbsnp&#45;&gt;dbsnp_url</title>
<path fill="none" stroke="black" stroke-dasharray="5,2" d="M536.81,-138.91C545.16,-122.71 557.96,-97.9 568.4,-77.64"/>
<polygon fill="black" stroke="black" points="571.54,-79.19 573.01,-68.69 565.32,-75.98 571.54,-79.19"/>
</g>
</g>
</svg>
